<svg width="49" height="35" viewBox="0 0 49 35" fill="none" xmlns="http://www.w3.org/2000/svg">
<g id="Group 49">
<path id="Vector" d="M30.2418 34.043C29.4078 32.8079 28.9909 31.4934 28.3634 30.0716C32.299 28.086 35.3053 25.306 35.9844 20.8145C35.4522 20.1235 34.793 20.1711 34.2529 19.9845C28.1569 17.8956 25.3769 10.6042 28.562 5.03641C32.2195 -1.34551 42.0645 -1.63144 46.0993 4.52014C48.0334 7.47481 48.5854 10.767 48.2994 14.1943C47.9042 19.0325 45.9182 23.6037 42.6515 27.1945C39.3848 30.7852 35.0212 33.1933 30.2418 34.043Z" fill="white"/>
<path id="Vector_2" d="M3.22112 34.0151L1.42212 30.0756C5.45301 28.0145 8.42754 25.2385 9.09472 20.7112C8.49505 20.1195 7.85963 20.1314 7.31158 19.9169C2.85973 18.3642 0.111574 14.1387 0.389568 9.25393C0.639761 4.83781 3.78108 1.27951 8.33222 0.270794C13.0422 -0.773663 17.5298 1.25965 19.7617 5.43352C21.7474 9.13082 21.9419 13.0863 20.9888 17.006C18.9237 25.5324 13.6379 31.1637 5.17105 33.6855C4.78933 33.793 4.40225 33.8805 4.01141 33.9476C3.81682 34.0032 3.61031 33.9913 3.22112 34.0151Z" fill="white"/>
</g>
</svg>
